<svg width="19" height="21" viewBox="0 0 19 21" fill="none" xmlns="http://www.w3.org/2000/svg"><path d="M16.475 9.48c-.073-4.19-4.246-7.722-8.347-7.137C6.26 2.61 4.683 3.39 3.324 4.705c-.388.366-.752.512-1.165.073-.655-.657-.824-1.266-.412-1.68C3.688 1.295 5.897.102 8.589.004c3.567-.097 6.357 1.413 8.396 4.287 2.742 3.897 2.475 9.353-.583 13.007-4.586 5.456-12.738 4.165-15.577-2.485C.291 13.523 0 12.183 0 10.794c0-.852.267-1.193 1.116-1.29.316-.05.631-.025.946-.025h14.413zM2.378 11.55c.34 3.823 3.615 6.941 7.158 6.892 3.324-.073 6.624-3.385 6.842-6.893h-14z" fill="#fff"/></svg>