<svg width="37" height="41" viewBox="0 0 37 41" fill="none" xmlns="http://www.w3.org/2000/svg">
<path d="M36 1.37414C36 14.2224 36 27.5938 36 40.4421C24.3301 40.4421 12.6796 40.4421 1 40.4421C1 27.6047 1 14.2224 1 1.38504C1.17447 1.33055 35.7092 1.31965 36 1.37414ZM33.4993 12.098C33.4993 10.7794 33.4993 5.49344 33.4993 4.18573C23.4965 4.18573 13.5228 4.18573 3.54916 4.18573C3.54916 15.1705 3.54916 26.6893 3.54916 37.6741C13.5422 37.6741 23.5159 37.6741 33.4993 37.6741C33.4993 28.9342 33.4993 23.6604 33.4993 14.8987C28.1393 14.8987 22.789 14.8987 17.4387 14.8987C17.4387 13.9615 17.4387 13.0461 17.4387 12.098C22.789 12.098 28.1296 12.098 33.4993 12.098Z" fill="#292B33" stroke="#292B33"/>
</svg>
